<?xml version="1.0" standalone="no"?>
<!DOCTYPE svg PUBLIC "-//W3C//DTD SVG 20010904//EN"
 "http://www.w3.org/TR/2001/REC-SVG-20010904/DTD/svg10.dtd">
<svg version="1.0" xmlns="http://www.w3.org/2000/svg"
 width="512.000000pt" height="512.000000pt" viewBox="0 0 512.000000 512.000000"
 preserveAspectRatio="xMidYMid meet">

<g transform="translate(0.000000,512.000000) scale(0.100000,-0.100000)"
fill="#ededed" stroke="none">
<path d="M937 5105 c-234 -40 -440 -146 -608 -314 -330 -330 -420 -820 -229
-1247 62 -137 134 -231 328 -427 l187 -187 262 262 262 262 -163 166 c-176
178 -208 225 -225 326 -39 248 175 462 423 423 120 -20 114 -14 816 -715 l655
-654 263 263 262 262 -682 681 c-443 442 -704 694 -743 720 -248 161 -536 225
-808 179z"/>
<path d="M3827 5105 c-275 -46 -432 -138 -710 -413 l-187 -187 262 -262 262
-262 166 163 c178 176 225 209 327 225 247 39 461 -175 422 -422 -19 -121 -14
-115 -715 -817 l-654 -655 263 -263 262 -262 676 677 c372 373 692 701 713
730 53 74 123 216 151 306 128 403 24 831 -274 1128 -254 254 -616 372 -964
314z"/>
<path d="M914 2488 c-723 -726 -737 -741 -814 -913 -191 -426 -101 -917 229
-1246 344 -345 860 -426 1294 -205 131 67 174 101 380 305 l187 186 -262 262
-262 262 -166 -163 c-178 -176 -225 -208 -326 -225 -248 -39 -462 175 -423
422 19 121 14 115 715 817 l654 655 -263 263 -262 262 -681 -682z"/>
<path d="M4243 1927 l-262 -262 163 -165 c176 -178 208 -225 225 -326 39 -248
-175 -462 -422 -423 -121 19 -115 14 -817 715 l-655 654 -263 -263 -262 -262
682 -681 c443 -442 704 -694 743 -720 463 -300 1035 -246 1416 135 331 330
420 820 228 1248 -61 135 -147 248 -336 435 l-178 178 -262 -263z"/>
</g>
</svg>
